<?xml version="1.0" encoding="UTF-8" standalone="no"?>
<!-- Created with Inkscape (http://www.inkscape.org/) -->

<svg
   width="16"
   height="16"
   viewBox="0 0 16 16.000001"
   version="1.1"
   id="svg5"
   inkscape:version="1.2.2 (732a01da63, 2022-12-09)"
   sodipodi:docname="icons.svg"
   xmlns:inkscape="http://www.inkscape.org/namespaces/inkscape"
   xmlns:sodipodi="http://sodipodi.sourceforge.net/DTD/sodipodi-0.dtd"
   xmlns="http://www.w3.org/2000/svg"
   xmlns:svg="http://www.w3.org/2000/svg">
  <sodipodi:namedview
     id="namedview7"
     pagecolor="#2b2b2b"
     bordercolor="#ffffff"
     borderopacity="1"
     inkscape:showpageshadow="0"
     inkscape:pageopacity="0"
     inkscape:pagecheckerboard="false"
     inkscape:deskcolor="#505050"
     inkscape:document-units="px"
     showgrid="false"
     inkscape:zoom="28.421709"
     inkscape:cx="3.5360294"
     inkscape:cy="5.6294995"
     inkscape:window-width="1920"
     inkscape:window-height="1017"
     inkscape:window-x="-8"
     inkscape:window-y="-8"
     inkscape:window-maximized="1"
     inkscape:current-layer="layer1" />
  <defs
     id="defs2" />
  <g
     inkscape:label="Layer 1"
     inkscape:groupmode="layer"
     id="layer1">
    <path
       id="circle412"
       style="fill:#ffffff;fill-opacity:1;stroke-width:2;stroke-linecap:round;stroke-linejoin:round"
       d="M 8,2 A 6,6 0 0 0 2,8 6,6 0 0 0 8,14 6,6 0 0 0 14,8 6,6 0 0 0 8,2 Z M 8,4 A 4,4 0 0 1 12,8 4,4 0 0 1 8,12 4,4 0 0 1 4,8 4,4 0 0 1 8,4 Z M 8,6 A 2,2 0 0 0 6,8 2,2 0 0 0 8,10 2,2 0 0 0 10,8 2,2 0 0 0 8,6 Z"
       inkscape:label="circle dot" />
    <path
       id="circle408-1"
       style="fill:#ffffff;stroke-width:2;stroke-linecap:round;stroke-linejoin:round"
       d="m 12.24264,3.7573594 a 6,6 0 0 0 -8.4852804,-10e-7 6,6 0 0 0 0,8.4852816 6,6 0 0 0 8.4852794,-10e-7 6,6 0 0 0 10e-7,-8.4852796 z m -1.414214,1.414213 a 4,4 0 0 1 -1e-6,5.6568536 4,4 0 0 1 -5.6568514,0 4,4 0 0 1 -1e-6,-5.6568546 4,4 0 0 1 5.6568534,10e-7 z"
       inkscape:label="circle" />
    <path
       d="M 4.464474,3.051635 3.051652,4.464459 6.587169,8.00001 3.051635,11.535544 4.464456,12.948366 7.999992,9.412833 11.535526,12.948366 12.948365,11.535527 9.412831,7.999993 12.948364,4.464458 11.535542,3.051636 8.000008,6.587169 Z"
       style="font-weight:bold;font-size:15px;font-family:'JetBrains Mono';-inkscape-font-specification:'JetBrains Mono Bold';fill:#ffffff;fill-opacity:1;stroke-width:2;stroke-linecap:round;stroke-linejoin:round"
       id="path1987"
       sodipodi:nodetypes="ccccccccccccc"
       inkscape:label="cross" />
    <path
       d="m 2.0009825,7.000809 1.4e-6,1.9983569 5.0008192,2.41e-5 V 14 l 1.9983587,10e-7 2e-6,-5.000811 5.0008182,-6e-7 -1e-6,-1.9983794 -5.000818,-3e-7 -1.6e-6,-5.0008093 -1.998359,-3e-7 -7e-7,5.0008089 z"
       style="font-weight:bold;font-size:15px;font-family:'JetBrains Mono';-inkscape-font-specification:'JetBrains Mono Bold';fill:#ffffff;fill-opacity:1;stroke-width:2;stroke-linecap:round;stroke-linejoin:round"
       id="path1987-3"
       sodipodi:nodetypes="ccccccccccccc"
       inkscape:label="plus" />
    <path
       d="M 12.243495,4.073535 13.656318,5.486359 6.879517,12.263161 3.344,8.727609 4.7568179,7.314783 6.8795159,9.437514 Z"
       style="font-weight:bold;font-size:15px;font-family:'JetBrains Mono';-inkscape-font-specification:'JetBrains Mono Bold';fill:#ffffff;fill-opacity:1;stroke-width:2;stroke-linecap:round;stroke-linejoin:round"
       id="path2075"
       sodipodi:nodetypes="ccccccc"
       inkscape:label="check" />
    <path
       id="rect2085"
       style="opacity:1;fill:#ffffff;fill-opacity:1;stroke-width:2;stroke-linecap:round;stroke-linejoin:round"
       d="m 1.9999989,6.9999992 v 2 H 14 v -2 z"
       inkscape:label="minus" />
  </g>
</svg>
